<svg xmlns="http://www.w3.org/2000/svg" viewBox="0 0 256 256"><defs><radialGradient id="bg"><stop stop-color="#164e55"/><stop offset=".58" stop-color="#112b31"/><stop offset="1" stop-color="#070a0d"/></radialGradient><linearGradient id="fire" x1="0" y1="1" x2="0" y2="0"><stop stop-color="#fff6b0"/><stop offset=".35" stop-color="#61efd8"/><stop offset="1" stop-color="#49aee8"/></linearGradient><filter id="gl"><feGaussianBlur stdDeviation="5" result="b"/><feMerge><feMergeNode in="b"/><feMergeNode in="SourceGraphic"/></feMerge></filter></defs><circle cx="128" cy="128" r="108" fill="url(#bg)" stroke="#d6ac69" stroke-width="9"/><path d="M128 7l16 28 31-6 2 31 29 13-17 26 20 24-25 19 12 29-30 8-7 30-28-14-23 21-20-24-27 16-12-29-31-3 4-31-28-15 19-25-18-26 29-12-3-31 31 5 15-27 22 22z" fill="none" stroke="#3e8784" stroke-width="5"/><g filter="url(#gl)"><path d="M73 188l112-23m-104-3 95 34" stroke="#8b552f" stroke-width="17" stroke-linecap="round"/><path d="M128 183c-48-32-26-69 1-88-5 27 14 31 21 49 11-26 4-50-7-75 45 27 58 83 7 114-7 5-15 8-22 8s-14-3-22-8z" fill="url(#fire)" stroke="#cffcff" stroke-width="5"/></g><circle cx="128" cy="25" r="9" fill="#58dfcf" stroke="#e9fffa" stroke-width="3"/></svg>