<svg xmlns="http://www.w3.org/2000/svg" viewBox="0 0 256 256"><defs><radialGradient id="bg"><stop stop-color="#8b2b1f"/><stop offset=".58" stop-color="#371018"/><stop offset="1" stop-color="#08070b"/></radialGradient><filter id="gl"><feGaussianBlur stdDeviation="5" result="b"/><feMerge><feMergeNode in="b"/><feMergeNode in="SourceGraphic"/></feMerge></filter></defs><circle cx="128" cy="128" r="110" fill="url(#bg)" stroke="#e0b35e" stroke-width="10"/><path d="M128 5l17 25 30-7 3 31 29 11-16 27 22 22-24 19 12 29-30 7-7 30-27-14-22 22-20-24-28 13-10-30-30-4 8-30-26-17 20-24-18-26 28-12-4-31 31 5 15-27 23 21z" fill="none" stroke="#8e552d" stroke-width="5"/><g filter="url(#gl)"><path d="M71 83l25 12 32-42 32 42 25-12-12 54H83z" fill="#e1b45d" stroke="#ffe2a1" stroke-width="5"/><circle cx="128" cy="87" r="11" fill="#ff704b"/><path d="M128 106l43 25-8 63-35 29-35-29-8-63z" fill="#1c1116" stroke="#e3b45f" stroke-width="7"/><path d="M128 123l17 53-17 32-17-32z" fill="#d84a35" stroke="#ffd280" stroke-width="5"/><path d="M128 119v88" stroke="#ffe5a9" stroke-width="5"/></g></svg>